<?xml version="1.0" standalone="no"?>
<!DOCTYPE svg PUBLIC "-//W3C//DTD SVG 20010904//EN"
 "http://www.w3.org/TR/2001/REC-SVG-20010904/DTD/svg10.dtd">
<svg version="1.0" xmlns="http://www.w3.org/2000/svg"
 width="682.000000pt" height="600.000000pt" viewBox="0 0 682.000000 600.000000"
 preserveAspectRatio="xMidYMid meet">

<g transform="translate(0.000000,600.000000) scale(0.100000,-0.100000)"
fill="#000000" stroke="none">
<path d="M0 3000 l0 -3000 3410 0 3410 0 0 3000 0 3000 -3410 0 -3410 0 0
-3000z m3739 2720 c645 -44 1235 -305 1694 -749 361 -349 593 -733 731 -1206
122 -417 138 -892 46 -1325 -152 -708 -607 -1350 -1229 -1734 -685 -422 -1519
-517 -2290 -260 -833 278 -1498 974 -1736 1814 -69 244 -95 425 -102 695 -10
385 48 712 188 1063 149 373 341 656 645 952 450 437 1063 710 1683 750 173
11 213 11 370 0z"/>
<path d="M3312 4729 c-380 -80 -705 -333 -862 -673 -49 -107 -74 -187 -95
-316 -23 -136 -16 -365 14 -486 111 -449 465 -803 910 -911 129 -31 337 -42
462 -23 98 14 260 65 350 110 166 83 373 264 473 413 75 112 152 276 183 394
25 91 27 113 27 303 0 190 -2 212 -26 300 -125 460 -482 795 -947 890 -134 27
-357 27 -489 -1z m364 -100 c466 -52 843 -375 962 -823 23 -90 26 -119 26
-266 0 -191 -17 -278 -82 -426 -118 -268 -292 -450 -547 -574 -311 -152 -629
-153 -940 -6 -268 128 -463 338 -574 617 -46 118 -62 215 -63 384 -1 214 34
359 133 540 152 279 473 498 804 549 114 18 162 19 281 5z"/>
<path d="M3133 4059 c-58 -22 -143 -94 -178 -150 -64 -100 -73 -277 -21 -393
63 -141 227 -331 487 -566 96 -87 142 -105 196 -77 31 17 335 323 424 427 120
141 170 245 177 368 8 149 -37 254 -148 341 -111 88 -272 94 -405 16 -34 -20
-58 -44 -101 -103 -1 -2 -24 20 -50 48 -27 29 -62 59 -79 67 -87 46 -216 55
-302 22z m577 -163 c0 -2 -7 -7 -16 -10 -8 -3 -12 -2 -9 4 6 10 25 14 25 6z
m-630 -26 c-6 -11 -13 -20 -16 -20 -2 0 0 9 6 20 6 11 13 20 16 20 2 0 0 -9
-6 -20z m973 -325 c-3 -9 -8 -14 -10 -11 -3 3 -2 9 2 15 9 16 15 13 8 -4z
m-979 -21 c3 -8 2 -12 -4 -9 -6 3 -10 10 -10 16 0 14 7 11 14 -7z m38 -58 c7
4 8 2 4 -5 -9 -13 -26 -5 -25 12 0 9 2 8 6 -1 2 -6 10 -9 15 -6z m581 -361
c-3 -9 -8 -14 -10 -11 -3 3 -2 9 2 15 9 16 15 13 8 -4z"/>
<path d="M1914 3576 l-34 -34 0 -353 c0 -425 -6 -396 156 -725 l75 -152 127
-115 c243 -219 269 -247 277 -297 11 -69 20 -80 65 -80 35 0 40 3 46 27 4 16
-1 51 -15 94 -20 62 -29 74 -114 156 -51 48 -139 129 -195 178 l-103 90 -69
140 c-38 77 -87 184 -109 239 l-41 98 0 335 c0 249 3 334 12 331 18 -6 47
-107 47 -168 1 -30 15 -125 31 -210 23 -117 29 -169 24 -215 -9 -90 2 -110
198 -351 165 -203 152 -191 185 -174 49 27 42 50 -57 177 -50 65 -110 140
-133 167 -48 57 -87 116 -87 133 0 7 9 17 20 23 17 9 27 5 61 -22 23 -18 63
-60 89 -93 62 -77 202 -215 260 -256 65 -46 176 -156 215 -214 59 -88 87 -191
94 -345 l6 -135 43 -3 c37 -3 43 0 52 22 13 34 3 203 -17 291 -37 163 -163
349 -298 440 -88 60 -393 370 -407 415 -5 14 -17 70 -28 125 -48 240 -84 324
-155 367 -18 10 -38 32 -45 49 -19 44 -65 79 -107 79 -27 0 -43 -8 -69 -34z
m255 -366 c6 -36 19 -95 27 -132 9 -37 14 -73 11 -80 -2 -7 -7 -2 -10 12 -52
241 -63 304 -48 280 5 -8 14 -44 20 -80z"/>
<path d="M5067 3580 c-19 -16 -40 -43 -47 -60 -7 -16 -27 -39 -46 -51 -19 -11
-43 -33 -54 -49 -22 -30 -67 -195 -96 -345 -16 -83 -20 -93 -58 -130 -23 -22
-71 -73 -106 -114 -91 -103 -207 -214 -277 -265 -115 -84 -226 -236 -269 -370
-21 -65 -27 -107 -32 -213 -5 -149 -1 -163 54 -163 40 0 40 0 49 160 8 130 38
242 86 318 40 64 153 178 215 218 29 18 98 84 155 146 141 154 227 238 243
238 22 0 39 -28 32 -53 -3 -12 -29 -50 -58 -82 -30 -33 -80 -95 -113 -139
-152 -199 -148 -192 -117 -218 39 -34 49 -30 111 45 170 205 219 267 251 317
33 52 35 59 37 150 1 52 11 140 23 195 11 55 25 149 31 209 11 117 26 177 47
184 9 3 12 -67 12 -329 l0 -332 -32 -81 c-18 -45 -52 -121 -76 -171 -102 -212
-113 -228 -184 -290 -38 -32 -125 -112 -193 -177 -135 -130 -159 -171 -153
-260 3 -42 4 -43 40 -46 42 -4 53 10 64 78 8 49 41 85 254 278 69 62 132 123
141 135 25 33 131 248 189 382 l50 118 0 364 c0 231 -4 371 -10 384 -6 10 -24
26 -40 34 -46 24 -85 19 -123 -15z m-106 -393 c-11 -46 -23 -107 -27 -136 -4
-28 -10 -54 -15 -57 -10 -6 -8 5 27 183 13 67 25 126 25 130 1 4 4 -2 6 -14 2
-12 -5 -59 -16 -106z"/>
</g>
</svg>
